<svg width="16" height="15" viewBox="0 0 16 15" fill="none" xmlns="http://www.w3.org/2000/svg">
<path id="Vector" d="M7.93473 0.0322571C12.0006 0.0322571 15.2968 3.32513 15.2968 7.3871C15.2968 11.449 12.0006 14.7419 7.93473 14.7419C3.86878 14.7419 0.572678 11.449 0.572678 7.3871C0.572678 3.32513 3.86878 0.0322571 7.93473 0.0322571ZM4.59948 5.89382C4.38385 6.10927 4.38385 6.45847 4.59948 6.6739L7.54432 9.61583C7.75995 9.83125 8.1095 9.83125 8.32514 9.61583L11.27 6.6739C11.4856 6.45847 11.4856 6.10927 11.27 5.89382C11.0543 5.6784 10.7048 5.6784 10.4891 5.89382L7.93473 8.44568L5.38034 5.89382C5.16471 5.6784 4.8151 5.6784 4.59948 5.89382Z" fill="#434343"/>
</svg>
