<svg width="21" height="21" viewBox="0 0 21 21" fill="none" xmlns="http://www.w3.org/2000/svg">
<path id="Icon" d="M17.4018 9.42373H3.64111M17.4018 9.42373C18.4875 9.42373 19.3676 10.3343 19.3676 11.4576V17.5593C19.3676 18.6826 18.4875 19.5932 17.4018 19.5932H3.6411C2.55542 19.5932 1.67529 18.6826 1.67529 17.5593V11.4576C1.67529 10.3343 2.55542 9.42373 3.64111 9.42373M17.4018 9.42373V7.38983C17.4018 6.26654 16.5217 5.35593 15.436 5.35593M3.64111 9.42373V7.38983C3.64111 6.26654 4.52123 5.35593 5.60692 5.35593M5.60692 5.35593V3.32203C5.60692 2.19874 6.48704 1.28813 7.57273 1.28813H13.4702C14.5559 1.28813 15.436 2.19874 15.436 3.32203V5.35593M5.60692 5.35593H15.436" stroke="white" stroke-width="2" stroke-linecap="round" stroke-linejoin="round"/>
</svg>
