<svg width="45" height="41" viewBox="0 0 45 41" fill="none" xmlns="http://www.w3.org/2000/svg">
<path fill-rule="evenodd" clip-rule="evenodd" d="M39.8804 17.9969L34.9718 20.9317V32.4259L39.8804 29.4911V17.9969Z" fill="#297B5E"/>
<path fill-rule="evenodd" clip-rule="evenodd" d="M9.94424 20.9317L1.8996 16.1218V27.6161L9.94424 32.4259V20.9317Z" fill="#297B5E"/>
<path fill-rule="evenodd" clip-rule="evenodd" d="M1.8996 10.7053L14.7921 2.99687V14.4911L1.8996 22.1995V10.7053Z" fill="#297B5E"/>
<path fill-rule="evenodd" clip-rule="evenodd" d="M14.7921 2.99687L39.8805 17.9968V29.4911L14.7921 14.4911V2.99687Z" fill="#297B5E"/>
<path fill-rule="evenodd" clip-rule="evenodd" d="M43.0164 16.1218L41.9711 16.7469V28.2411L43.0164 27.6161V16.1218Z" fill="#297B5E"/>
<path fill-rule="evenodd" clip-rule="evenodd" d="M41.971 16.7468L16.8828 1.74686V13.2411L41.971 28.2411V16.7468Z" fill="#297B5E"/>
<path fill-rule="evenodd" clip-rule="evenodd" d="M16.8828 1.74687L17.9281 1.12181V12.6162L16.8828 13.2411V1.74687Z" fill="#297B5E"/>
<path fill-rule="evenodd" clip-rule="evenodd" d="M26.9876 1.12181L43.0163 10.7052V22.1995L26.9876 12.6162V1.12181Z" fill="#297B5E"/>
<path fill-rule="evenodd" clip-rule="evenodd" d="M29.427 22.8242L19.2622 22.8243V34.3185L29.427 34.3184V22.8242Z" fill="#297B5E"/>
<path fill-rule="evenodd" clip-rule="evenodd" d="M19.2622 22.8243L19.2623 20.0802V31.5744L19.2622 34.3186V22.8243Z" fill="#297B5E"/>
<path fill-rule="evenodd" clip-rule="evenodd" d="M18.2766 24.0028H29.427V35.497H18.2766V24.0028Z" fill="#297B5E"/>
<path fill-rule="evenodd" clip-rule="evenodd" d="M34.9719 20.9317C34.4652 19.5507 33.3137 18.2373 31.5177 17.1635V28.6577C33.3137 29.7315 34.4652 31.045 34.9719 32.4259V20.9317Z" fill="#297B5E"/>
<path fill-rule="evenodd" clip-rule="evenodd" d="M31.5177 17.1635C26.514 14.1719 18.4019 14.1719 13.3983 17.1635V28.6577C18.4019 25.6661 26.514 25.6661 31.5177 28.6577V17.1635Z" fill="#297B5E"/>
<path fill-rule="evenodd" clip-rule="evenodd" d="M13.3984 17.1635C11.6024 18.2373 10.4509 19.5507 9.94421 20.9317V32.4259C10.4509 31.045 11.6024 29.7315 13.3984 28.6577V17.1635Z" fill="#297B5E"/>
<path fill-rule="evenodd" clip-rule="evenodd" d="M1.89945 16.1218C0.648652 15.3744 0.022644 14.394 0.022644 13.4135V24.9078C0.022644 25.8882 0.648652 26.8687 1.89945 27.6161V16.1218Z" fill="#297B5E"/>
<path fill-rule="evenodd" clip-rule="evenodd" d="M0.022644 13.4135C0.022644 13.3216 0.0281883 13.2296 0.0392769 13.1376V24.6319C0.0281883 24.7238 0.022644 24.8158 0.022644 24.9077V13.4135Z" fill="#297B5E"/>
<path fill-rule="evenodd" clip-rule="evenodd" d="M0.0393677 13.1411C0.143702 12.256 0.76194 11.3882 1.89186 10.7101V22.2043C0.76194 22.8825 0.143702 23.7503 0.0393677 24.6353V13.1411Z" fill="#297B5E"/>
<path fill-rule="evenodd" clip-rule="evenodd" d="M43.0164 10.7053C44.1496 11.3825 44.77 12.2515 44.8766 13.1377V24.6319C44.77 23.7457 44.1496 22.8767 43.0164 22.1995V10.7053Z" fill="#297B5E"/>
<path fill-rule="evenodd" clip-rule="evenodd" d="M44.8766 13.1376C44.8877 13.2296 44.8933 13.3216 44.8933 13.4135V24.9077C44.8933 24.8158 44.8877 24.7238 44.8766 24.6319V13.1376Z" fill="#297B5E"/>
<path fill-rule="evenodd" clip-rule="evenodd" d="M44.8934 13.4112C44.8945 14.3894 44.2707 15.3698 43.0242 16.117V27.6112C44.2707 26.8641 44.8945 25.8836 44.8934 24.9055V13.4112Z" fill="#297B5E"/>
<path fill-rule="evenodd" clip-rule="evenodd" d="M17.9282 1.12182C20.4299 -0.373929 24.4861 -0.373929 26.9878 1.12182V12.6162C24.4861 11.1203 20.4299 11.1203 17.9282 12.6162V1.12182Z" fill="#297B5E"/>
<path fill-rule="evenodd" clip-rule="evenodd" d="M30.124 27.1635C25.8901 29.6949 19.026 29.6949 14.7921 27.1635V38.6577C19.026 41.1891 25.8901 41.1891 30.124 38.6577V27.1635Z" fill="#297B5E"/>
<path fill-rule="evenodd" clip-rule="evenodd" d="M14.7921 27.1635C12.8737 26.0169 11.8248 24.5468 11.645 23.0468V34.5411C11.8248 36.0411 12.8737 37.5112 14.7921 38.6577V27.1635Z" fill="#297B5E"/>
<path fill-rule="evenodd" clip-rule="evenodd" d="M11.645 23.0468C11.6261 22.8917 11.6172 22.7353 11.6172 22.5802V34.0744C11.6172 34.2296 11.6261 34.3859 11.645 34.5411V23.0468Z" fill="#297B5E"/>
<path fill-rule="evenodd" clip-rule="evenodd" d="M11.6172 22.5825C11.6161 20.9239 12.6728 19.2664 14.7861 18.0009V29.4951C12.6728 30.7606 11.6161 32.4181 11.6172 34.0767V22.5825Z" fill="#297B5E"/>
<path fill-rule="evenodd" clip-rule="evenodd" d="M14.7921 17.9968C19.026 15.4655 25.8901 15.4655 30.124 17.9968V29.4911C25.8901 26.9597 19.026 26.9597 14.7921 29.4911V17.9968Z" fill="#297B5E"/>
<path fill-rule="evenodd" clip-rule="evenodd" d="M30.1239 17.9969C32.0423 19.1434 33.0912 20.6135 33.271 22.1135V33.6077C33.0912 32.1078 32.0423 30.6376 30.1239 29.4911V17.9969Z" fill="#297B5E"/>
<path fill-rule="evenodd" clip-rule="evenodd" d="M33.271 22.1135C33.2899 22.2687 33.2987 22.425 33.2987 22.5802V34.0744C33.2987 33.9192 33.2899 33.7629 33.271 33.6077V22.1135Z" fill="#297B5E"/>
<path fill-rule="evenodd" clip-rule="evenodd" d="M33.2988 22.5779C33.2999 24.2353 32.2432 25.894 30.1299 27.1595V38.6537C32.2432 37.3882 33.2999 35.7296 33.2988 34.0721V22.5779Z" fill="#297B5E"/>
<path fill-rule="evenodd" clip-rule="evenodd" d="M30.4116 23.4135C30.4115 23.0881 29.9706 22.8243 29.4269 22.8242V34.3184C29.9706 34.3185 30.4115 34.5823 30.4116 34.9077V23.4135Z" fill="#297B5E"/>
<path fill-rule="evenodd" clip-rule="evenodd" d="M19.2613 20.0802C19.2612 19.7548 18.8204 19.491 18.2766 19.4909V30.9851C18.8204 30.9852 19.2612 31.249 19.2613 31.5744V20.0802Z" fill="#297B5E"/>
<path fill-rule="evenodd" clip-rule="evenodd" d="M18.2755 19.4909C17.7318 19.491 17.291 19.7548 17.2908 20.0802V31.5744C17.291 31.249 17.7318 30.9852 18.2755 30.9851V19.4909Z" fill="#297B5E"/>
<path fill-rule="evenodd" clip-rule="evenodd" d="M17.2908 23.4135C17.291 23.7389 17.7318 24.0027 18.2755 24.0028V35.497C17.7318 35.4969 17.291 35.2331 17.2908 34.9077V23.4135Z" fill="#297B5E"/>
<path fill-rule="evenodd" clip-rule="evenodd" d="M29.4269 24.0028C29.9706 24.0027 30.4115 23.7389 30.4116 23.4135V34.9077C30.4115 35.2331 29.9706 35.4969 29.4269 35.497V24.0028Z" fill="#297B5E"/>
<path d="M39.8804 17.9968L34.9717 20.9317C34.4651 19.5508 33.3136 18.2373 31.5176 17.1635C26.514 14.1719 18.4018 14.1719 13.3983 17.1635C11.6022 18.2373 10.4508 19.5508 9.94415 20.9317L1.89944 16.1218C-0.602325 14.6261 -0.602283 12.2009 1.89944 10.7052L14.7921 2.99686L39.8804 17.9968ZM43.0164 10.7052C45.5181 12.2009 45.5182 14.6261 43.0164 16.1218L41.9711 16.7468L16.8827 1.74687L17.9281 1.12187C20.4299 -0.373905 24.486 -0.373905 26.9878 1.12187L43.0164 10.7052ZM30.1238 27.1635C25.89 29.6948 19.0258 29.6948 14.7921 27.1635C10.5583 24.6322 10.5583 20.5282 14.7921 17.9968C19.0258 15.4655 25.89 15.4655 30.1238 17.9968C34.3576 20.5282 34.3576 24.6322 30.1238 27.1635ZM30.4126 23.4135C30.4125 23.0881 29.9712 22.8242 29.4269 22.8242L19.2621 22.8242L19.2622 20.0802C19.2621 19.7548 18.8208 19.4909 18.2765 19.4908C17.7323 19.4909 17.291 19.7548 17.2909 20.0802V23.4135C17.291 23.7389 17.7323 24.0027 18.2765 24.0028H29.4269C29.9712 24.0027 30.4125 23.7389 30.4126 23.4135Z" fill="white"/>
</svg>
