<svg width="114" height="25" viewBox="0 0 114 25" fill="none" xmlns="http://www.w3.org/2000/svg">
<path d="M3.63174 3.375V7.75H9.50674V10.525H3.63174V15.15H10.2567V18H0.131738V0.524998H10.2567V3.375H3.63174ZM12.5374 11.025C12.5374 9.625 12.8124 8.38333 13.3624 7.3C13.9291 6.21667 14.6874 5.38333 15.6374 4.8C16.6041 4.21667 17.6791 3.925 18.8624 3.925C19.8957 3.925 20.7957 4.13333 21.5624 4.55C22.3457 4.96667 22.9707 5.49167 23.4374 6.125V4.15H26.9624V18H23.4374V15.975C22.9874 16.625 22.3624 17.1667 21.5624 17.6C20.7791 18.0167 19.8707 18.225 18.8374 18.225C17.6707 18.225 16.6041 17.925 15.6374 17.325C14.6874 16.725 13.9291 15.8833 13.3624 14.8C12.8124 13.7 12.5374 12.4417 12.5374 11.025ZM23.4374 11.075C23.4374 10.225 23.2707 9.5 22.9374 8.9C22.6041 8.28333 22.1541 7.81667 21.5874 7.5C21.0207 7.16667 20.4124 7 19.7624 7C19.1124 7 18.5124 7.15833 17.9624 7.475C17.4124 7.79167 16.9624 8.25833 16.6124 8.875C16.2791 9.475 16.1124 10.1917 16.1124 11.025C16.1124 11.8583 16.2791 12.5917 16.6124 13.225C16.9624 13.8417 17.4124 14.3167 17.9624 14.65C18.5291 14.9833 19.1291 15.15 19.7624 15.15C20.4124 15.15 21.0207 14.9917 21.5874 14.675C22.1541 14.3417 22.6041 13.875 22.9374 13.275C23.2707 12.6583 23.4374 11.925 23.4374 11.075ZM35.6808 18.225C34.5474 18.225 33.5308 18.025 32.6308 17.625C31.7308 17.2083 31.0141 16.65 30.4808 15.95C29.9641 15.25 29.6808 14.475 29.6308 13.625H33.1558C33.2224 14.1583 33.4808 14.6 33.9308 14.95C34.3974 15.3 34.9724 15.475 35.6558 15.475C36.3224 15.475 36.8391 15.3417 37.2058 15.075C37.5891 14.8083 37.7808 14.4667 37.7808 14.05C37.7808 13.6 37.5474 13.2667 37.0808 13.05C36.6308 12.8167 35.9058 12.5667 34.9058 12.3C33.8724 12.05 33.0224 11.7917 32.3558 11.525C31.7058 11.2583 31.1391 10.85 30.6558 10.3C30.1891 9.75 29.9558 9.00833 29.9558 8.075C29.9558 7.30833 30.1724 6.60833 30.6058 5.975C31.0558 5.34167 31.6891 4.84167 32.5058 4.475C33.3391 4.10833 34.3141 3.925 35.4308 3.925C37.0808 3.925 38.3974 4.34167 39.3808 5.175C40.3641 5.99167 40.9058 7.1 41.0058 8.5H37.6558C37.6058 7.95 37.3724 7.51667 36.9558 7.2C36.5558 6.86667 36.0141 6.7 35.3308 6.7C34.6974 6.7 34.2058 6.81667 33.8558 7.05C33.5224 7.28333 33.3558 7.60833 33.3558 8.025C33.3558 8.49167 33.5891 8.85 34.0558 9.1C34.5224 9.33333 35.2474 9.575 36.2308 9.825C37.2308 10.075 38.0558 10.3333 38.7058 10.6C39.3558 10.8667 39.9141 11.2833 40.3808 11.85C40.8641 12.4 41.1141 13.1333 41.1308 14.05C41.1308 14.85 40.9058 15.5667 40.4558 16.2C40.0224 16.8333 39.3891 17.3333 38.5558 17.7C37.7391 18.05 36.7808 18.225 35.6808 18.225ZM57.2538 4.15L48.6788 24.55H44.9538L47.9538 17.65L42.4038 4.15H46.3288L49.9038 13.825L53.5288 4.15H57.2538Z" fill="url(#paint0_linear_175_708)"/>
<path d="M73.6155 0.55V18H70.1155V10.575H62.6405V18H59.1405V0.55H62.6405V7.725H70.1155V0.55H73.6155ZM83.2104 18.225C81.8771 18.225 80.6771 17.9333 79.6104 17.35C78.5438 16.75 77.7021 15.9083 77.0854 14.825C76.4854 13.7417 76.1854 12.4917 76.1854 11.075C76.1854 9.65833 76.4938 8.40833 77.1104 7.325C77.7438 6.24167 78.6021 5.40833 79.6854 4.825C80.7688 4.225 81.9771 3.925 83.3104 3.925C84.6438 3.925 85.8521 4.225 86.9354 4.825C88.0188 5.40833 88.8688 6.24167 89.4855 7.325C90.1188 8.40833 90.4355 9.65833 90.4355 11.075C90.4355 12.4917 90.1104 13.7417 89.4604 14.825C88.8271 15.9083 87.9604 16.75 86.8604 17.35C85.7771 17.9333 84.5604 18.225 83.2104 18.225ZM83.2104 15.175C83.8438 15.175 84.4354 15.025 84.9854 14.725C85.5521 14.4083 86.0021 13.9417 86.3354 13.325C86.6688 12.7083 86.8354 11.9583 86.8354 11.075C86.8354 9.75833 86.4854 8.75 85.7854 8.05C85.1021 7.33333 84.2604 6.975 83.2604 6.975C82.2604 6.975 81.4188 7.33333 80.7354 8.05C80.0688 8.75 79.7354 9.75833 79.7354 11.075C79.7354 12.3917 80.0604 13.4083 80.7104 14.125C81.3771 14.825 82.2104 15.175 83.2104 15.175ZM98.3028 18.225C97.1695 18.225 96.1528 18.025 95.2528 17.625C94.3528 17.2083 93.6362 16.65 93.1028 15.95C92.5862 15.25 92.3028 14.475 92.2528 13.625H95.7778C95.8445 14.1583 96.1028 14.6 96.5528 14.95C97.0195 15.3 97.5945 15.475 98.2778 15.475C98.9445 15.475 99.4612 15.3417 99.8278 15.075C100.211 14.8083 100.403 14.4667 100.403 14.05C100.403 13.6 100.169 13.2667 99.7028 13.05C99.2528 12.8167 98.5278 12.5667 97.5278 12.3C96.4945 12.05 95.6445 11.7917 94.9778 11.525C94.3278 11.2583 93.7612 10.85 93.2778 10.3C92.8112 9.75 92.5778 9.00833 92.5778 8.075C92.5778 7.30833 92.7945 6.60833 93.2278 5.975C93.6778 5.34167 94.3112 4.84167 95.1278 4.475C95.9612 4.10833 96.9362 3.925 98.0528 3.925C99.7028 3.925 101.019 4.34167 102.003 5.175C102.986 5.99167 103.528 7.1 103.628 8.5H100.278C100.228 7.95 99.9945 7.51667 99.5778 7.2C99.1778 6.86667 98.6362 6.7 97.9528 6.7C97.3195 6.7 96.8278 6.81667 96.4778 7.05C96.1445 7.28333 95.9778 7.60833 95.9778 8.025C95.9778 8.49167 96.2112 8.85 96.6778 9.1C97.1445 9.33333 97.8695 9.575 98.8528 9.825C99.8528 10.075 100.678 10.3333 101.328 10.6C101.978 10.8667 102.536 11.2833 103.003 11.85C103.486 12.4 103.736 13.1333 103.753 14.05C103.753 14.85 103.528 15.5667 103.078 16.2C102.644 16.8333 102.011 17.3333 101.178 17.7C100.361 18.05 99.4028 18.225 98.3028 18.225ZM110.701 7.025V13.725C110.701 14.1917 110.809 14.5333 111.026 14.75C111.259 14.95 111.643 15.05 112.176 15.05H113.801V18H111.601C108.651 18 107.176 16.5667 107.176 13.7V7.025H105.526V4.15H107.176V0.724999H110.701V4.15H113.801V7.025H110.701Z" fill="#434343"/>
<defs>
<linearGradient id="paint0_linear_175_708" x1="13" y1="7.5" x2="21.6479" y2="34.5305" gradientUnits="userSpaceOnUse">
<stop stop-color="#5586B4"/>
<stop offset="0.984375" stop-color="#2D5E8C"/>
</linearGradient>
</defs>
</svg>
