<svg width="22" height="22" viewBox="0 0 22 22" fill="none" xmlns="http://www.w3.org/2000/svg">
<path id="Vector" d="M11 0.9C8.49293 0.9 6.19901 1.81358 4.43333 3.32585V2.38889C4.43333 1.87343 4.01546 1.45556 3.5 1.45556C2.98454 1.45556 2.56667 1.87343 2.56667 2.38889V5.72222C2.56667 6.23768 2.98454 6.65556 3.5 6.65556H6.83333C7.3488 6.65556 7.76667 6.23768 7.76667 5.72222C7.76667 5.20676 7.34879 4.78889 6.83333 4.78889H5.5952C7.04145 3.52931 8.93154 2.76667 11 2.76667C15.5471 2.76667 19.2333 6.45285 19.2333 11C19.2333 15.5471 15.5471 19.2333 11 19.2333C6.45285 19.2333 2.76667 15.5471 2.76667 11C2.76667 10.5867 2.7971 10.1807 2.85584 9.78387C2.93823 9.22729 2.53156 8.67778 1.95231 8.67778C1.49534 8.67778 1.0882 8.9942 1.0175 9.4546C0.940123 9.95849 0.9 10.4746 0.9 11C0.9 16.5781 5.42193 21.1 11 21.1C16.5781 21.1 21.1 16.5781 21.1 11C21.1 5.42193 16.5781 0.9 11 0.9ZM11.6556 6.27778C11.6556 5.76232 11.2377 5.34444 10.7222 5.34444C10.2068 5.34444 9.78889 5.76232 9.78889 6.27778V11.2778C9.78889 11.7932 10.2068 12.2111 10.7222 12.2111H13.5C14.0155 12.2111 14.4333 11.7932 14.4333 11.2778C14.4333 10.7623 14.0155 10.3444 13.5 10.3444H11.6556V6.27778Z" fill="#434343" stroke="#434343" stroke-width="0.2"/>
</svg>
