<svg width="125" height="90" viewBox="0 0 125 90" fill="none" xmlns="http://www.w3.org/2000/svg">
<path fill-rule="evenodd" clip-rule="evenodd" d="M110.198 47.8866L96.6584 55.6958V68.3665L110.198 60.5573V47.8866Z" fill="#46768E"/>
<path fill-rule="evenodd" clip-rule="evenodd" d="M27.6279 55.6958L5.43896 42.8976V55.5682L27.6279 68.3665V55.6958Z" fill="#46768E"/>
<path fill-rule="evenodd" clip-rule="evenodd" d="M5.43896 28.4847L40.9993 7.97408V20.6447L5.43896 41.1553V28.4847Z" fill="#46768E"/>
<path fill-rule="evenodd" clip-rule="evenodd" d="M40.9993 7.97408L110.198 47.8866V60.5573L40.9993 20.6447V7.97408Z" fill="#46768E"/>
<path fill-rule="evenodd" clip-rule="evenodd" d="M118.848 42.8976L115.964 44.5606V57.2313L118.848 55.5682V42.8976Z" fill="#46768E"/>
<path fill-rule="evenodd" clip-rule="evenodd" d="M115.964 44.5606L46.7656 4.64804V17.3187L115.964 57.2313V44.5606Z" fill="#46768E"/>
<path fill-rule="evenodd" clip-rule="evenodd" d="M46.7656 4.64804L49.649 2.98502V15.6557L46.7656 17.3187V4.64804Z" fill="#46768E"/>
<path fill-rule="evenodd" clip-rule="evenodd" d="M74.6374 2.98502L118.848 28.4847V41.1554L74.6374 15.6557V2.98502Z" fill="#46768E"/>
<path fill-rule="evenodd" clip-rule="evenodd" d="M69.126 53.4531L72.8407 63.7565V76.4272L69.126 66.1238V53.4531Z" fill="#46768E"/>
<path fill-rule="evenodd" clip-rule="evenodd" d="M68.8609 66.0939L50.7105 64.1166V76.7873L68.8609 78.7645V66.0939Z" fill="#46768E"/>
<path fill-rule="evenodd" clip-rule="evenodd" d="M49.152 60.9219L63.5991 52.589V65.2597L49.152 73.5925V60.9219Z" fill="#46768E"/>
<path fill-rule="evenodd" clip-rule="evenodd" d="M96.6586 55.6958C95.2611 52.0213 92.0853 48.5265 87.1315 45.6693V58.3399C92.0853 61.1972 95.2611 64.692 96.6586 68.3665V55.6958Z" fill="#46768E"/>
<path fill-rule="evenodd" clip-rule="evenodd" d="M87.1314 45.6693C73.3305 37.7092 50.9556 37.7092 37.1547 45.6693V58.3399C50.9556 50.3799 73.3305 50.3799 87.1314 58.3399V45.6693Z" fill="#46768E"/>
<path fill-rule="evenodd" clip-rule="evenodd" d="M37.1548 45.6693C32.2011 48.5265 29.0252 52.0213 27.6278 55.6958V68.3665C29.0252 64.692 32.2011 61.1972 37.1548 58.3399V45.6693Z" fill="#46768E"/>
<path fill-rule="evenodd" clip-rule="evenodd" d="M5.43881 42.8976C1.98851 40.9077 0.263611 38.2988 0.263611 35.6911V48.3618C0.263611 50.9694 1.98851 53.5783 5.43881 55.5682V42.8976Z" fill="#46768E"/>
<path fill-rule="evenodd" clip-rule="evenodd" d="M0.263611 35.6924C0.263611 35.4479 0.278816 35.202 0.309225 34.9575V47.6282C0.278816 47.8727 0.263611 48.1185 0.263611 48.3631V35.6924Z" fill="#46768E"/>
<path fill-rule="evenodd" clip-rule="evenodd" d="M0.309387 34.9575C0.602366 32.5995 2.31205 30.2884 5.43842 28.4853V41.156C2.31205 42.959 0.602366 45.2701 0.309387 47.6281V34.9575Z" fill="#46768E"/>
<path fill-rule="evenodd" clip-rule="evenodd" d="M118.847 28.4847C121.974 30.2884 123.684 32.5995 123.977 34.9575V47.6282C123.684 45.2702 121.974 42.959 118.847 41.1554V28.4847Z" fill="#46768E"/>
<path fill-rule="evenodd" clip-rule="evenodd" d="M123.977 34.9588C124.007 35.2021 124.022 35.4466 124.022 35.6911V48.3618C124.022 48.1173 124.007 47.8727 123.977 47.6294V34.9588Z" fill="#46768E"/>
<path fill-rule="evenodd" clip-rule="evenodd" d="M124.023 35.6873C124.024 38.2937 122.303 40.9013 118.858 42.8919V55.5625C122.303 53.572 124.024 50.9644 124.023 48.358V35.6873Z" fill="#46768E"/>
<path fill-rule="evenodd" clip-rule="evenodd" d="M49.649 2.985C56.5494 -0.99498 67.7369 -0.99498 74.6372 2.985V15.6557C67.7369 11.6757 56.5494 11.6757 49.649 15.6557V2.985Z" fill="#46768E"/>
<path fill-rule="evenodd" clip-rule="evenodd" d="M40.9993 72.2777C52.6769 79.0131 71.6093 79.0134 83.2872 72.2777V84.9483C71.6093 91.684 52.6769 91.6838 40.9993 84.9483V72.2777Z" fill="#46768E"/>
<path fill-rule="evenodd" clip-rule="evenodd" d="M83.287 72.2777C89.1263 68.9098 92.0459 64.4953 92.0459 60.0822V72.7528C92.0459 77.166 89.1263 81.5805 83.287 84.9483V72.2777Z" fill="#46768E"/>
<path fill-rule="evenodd" clip-rule="evenodd" d="M92.0447 60.091C92.046 59.6653 92.0181 59.2408 91.9649 58.8164V71.487C92.0181 71.9115 92.046 72.3359 92.0447 72.7617V60.091Z" fill="#46768E"/>
<path fill-rule="evenodd" clip-rule="evenodd" d="M91.9649 58.8189C91.4614 54.8378 88.5722 50.9377 83.296 47.8917V60.5624C88.5722 63.6084 91.4614 67.5084 91.9649 71.4895V58.8189Z" fill="#46768E"/>
<path fill-rule="evenodd" clip-rule="evenodd" d="M83.2872 47.8866C71.6097 41.1512 52.6773 41.1509 40.9993 47.8866V60.5573C52.6773 53.8216 71.6097 53.8218 83.2872 60.5573V47.8866Z" fill="#46768E"/>
<path fill-rule="evenodd" clip-rule="evenodd" d="M40.9993 47.8866C35.16 51.2545 32.2404 55.669 32.2404 60.0821V72.7528C32.2404 68.3396 35.16 63.9252 40.9993 60.5573V47.8866Z" fill="#46768E"/>
<path fill-rule="evenodd" clip-rule="evenodd" d="M32.2416 60.0733C32.2404 60.499 32.2682 60.9235 32.3214 61.348V74.0186C32.2682 73.5942 32.2404 73.1697 32.2416 72.744V60.0733Z" fill="#46768E"/>
<path fill-rule="evenodd" clip-rule="evenodd" d="M32.3217 61.3454C32.8252 65.3265 35.7144 69.2266 40.9905 72.2726V84.9433C35.7144 81.8972 32.8252 77.9972 32.3217 74.0161V61.3454Z" fill="#46768E"/>
<path fill-rule="evenodd" clip-rule="evenodd" d="M68.2797 52.5354C68.7252 52.7926 69.0075 53.0983 69.1251 53.4531V66.1237C69.0075 65.769 68.7252 65.4632 68.2797 65.206V52.5354Z" fill="#46768E"/>
<path fill-rule="evenodd" clip-rule="evenodd" d="M72.8408 63.7565C72.8895 63.8859 72.9135 64.0139 72.9161 64.1431V76.8138C72.9135 76.6845 72.8895 76.5565 72.8408 76.4272V63.7565Z" fill="#46768E"/>
<path fill-rule="evenodd" clip-rule="evenodd" d="M72.9159 64.1431C72.9171 64.3306 72.8703 64.5194 72.7714 64.707V77.3776C72.8703 77.1901 72.9171 77.0013 72.9159 76.8138V64.1431Z" fill="#46768E"/>
<path fill-rule="evenodd" clip-rule="evenodd" d="M72.7709 64.7064C72.6134 65.0177 72.3284 65.2927 71.9147 65.5315V78.2022C72.3284 77.9634 72.6134 77.6884 72.7709 77.3771V64.7064Z" fill="#46768E"/>
<path fill-rule="evenodd" clip-rule="evenodd" d="M71.9146 65.5316C71.5163 65.7613 71.0443 65.928 70.4961 66.0327V78.7033C71.0443 78.5987 71.5163 78.4319 71.9146 78.2022V65.5316Z" fill="#46768E"/>
<path fill-rule="evenodd" clip-rule="evenodd" d="M70.4959 66.0327C70.3545 66.0596 70.2147 66.0809 70.0745 66.0968V78.7674C70.2147 78.7516 70.3545 78.7303 70.4959 78.7033V66.0327Z" fill="#46768E"/>
<path fill-rule="evenodd" clip-rule="evenodd" d="M70.0742 66.0968C69.668 66.1426 69.2639 66.1411 68.8606 66.0939V78.7645C69.2639 78.8118 69.668 78.8133 70.0742 78.7674V66.0968Z" fill="#46768E"/>
<path fill-rule="evenodd" clip-rule="evenodd" d="M50.7096 64.1166C50.4704 64.0885 50.2462 64.0503 50.0376 64V76.6707C50.2462 76.721 50.4704 76.7591 50.7096 76.7873V64.1166Z" fill="#46768E"/>
<path fill-rule="evenodd" clip-rule="evenodd" d="M50.0375 64C49.9566 63.9806 49.8785 63.9596 49.8025 63.9371V76.6077C49.8785 76.6303 49.9566 76.6513 50.0375 76.6707V64Z" fill="#46768E"/>
<path fill-rule="evenodd" clip-rule="evenodd" d="M49.8016 63.9371C49.5374 63.8599 49.2897 63.755 49.0588 63.6217V76.2923C49.2897 76.4256 49.5374 76.5306 49.8016 76.6077V63.9371Z" fill="#46768E"/>
<path fill-rule="evenodd" clip-rule="evenodd" d="M49.0584 63.6217C48.756 63.4472 48.5272 63.2436 48.3724 63.0115V75.6821C48.5272 75.9142 48.756 76.1179 49.0584 76.2923V63.6217Z" fill="#46768E"/>
<path fill-rule="evenodd" clip-rule="evenodd" d="M48.372 63.0115C48.236 62.7886 48.1638 62.5618 48.1549 62.3299V75.0006C48.1638 75.2324 48.236 75.4592 48.372 75.6821V63.0115Z" fill="#46768E"/>
<path fill-rule="evenodd" clip-rule="evenodd" d="M48.155 62.3299C48.1537 62.3135 48.1537 62.2983 48.1537 62.2831V74.9537C48.1537 74.9689 48.1537 74.9841 48.155 75.0006V62.3299Z" fill="#46768E"/>
<path fill-rule="evenodd" clip-rule="evenodd" d="M48.1537 62.2831C48.1551 62.2602 48.1576 62.2362 48.1601 62.2134V74.884C48.1576 74.9068 48.1551 74.9309 48.1537 74.9537V62.2831Z" fill="#46768E"/>
<path fill-rule="evenodd" clip-rule="evenodd" d="M48.1602 62.2133C48.188 61.9878 48.2767 61.7673 48.4224 61.5494V74.2201C48.2767 74.438 48.188 74.6585 48.1602 74.884V62.2133Z" fill="#46768E"/>
<path fill-rule="evenodd" clip-rule="evenodd" d="M48.4225 61.5492C48.593 61.3128 48.8362 61.1037 49.151 60.9218V73.5925C48.8362 73.7743 48.593 73.9835 48.4225 74.2198V61.5492Z" fill="#46768E"/>
<path fill-rule="evenodd" clip-rule="evenodd" d="M63.5991 52.589C63.9224 52.4025 64.2884 52.2602 64.6982 52.1617V64.8324C64.2884 64.9308 63.9224 65.0731 63.5991 65.2596V52.589Z" fill="#46768E"/>
<path fill-rule="evenodd" clip-rule="evenodd" d="M64.6981 52.1617C65.1158 52.068 65.5349 52.0187 65.9577 52.0139V64.6845C65.5349 64.6893 65.1158 64.7386 64.6981 64.8324V52.1617Z" fill="#46768E"/>
<path fill-rule="evenodd" clip-rule="evenodd" d="M65.958 52.0139C66.381 52.0089 66.7938 52.0511 67.1975 52.1398V64.8105C66.7938 64.7218 66.381 64.6796 65.958 64.6845V52.0139Z" fill="#46768E"/>
<path fill-rule="evenodd" clip-rule="evenodd" d="M67.1976 52.1398C67.6081 52.2244 67.9695 52.3562 68.2801 52.5354V65.206C67.9695 65.0269 67.6081 64.8951 67.1976 64.8104V52.1398Z" fill="#46768E"/>
<path d="M110.198 47.8866L96.6585 55.6958C95.2611 52.0214 92.0853 48.5266 87.1315 45.6693C73.3306 37.7092 50.9557 37.7092 37.1549 45.6693C32.201 48.5266 29.0252 52.0214 27.6278 55.6958L5.43895 42.8976C-1.4614 38.9176 -1.46128 32.4647 5.43895 28.4847L40.9992 7.97408L110.198 47.8866ZM118.847 28.4847C125.748 32.4647 125.748 38.9176 118.847 42.8976L115.964 44.5606L46.7657 4.64803L49.649 2.98501C56.5494 -0.995004 67.737 -0.995004 74.6373 2.98501L118.847 28.4847ZM40.9992 72.2777C52.6768 79.0131 71.6091 79.0133 83.2871 72.2777C94.9651 65.542 94.9647 54.6221 83.2871 47.8866C71.6095 41.1512 52.6772 41.151 40.9992 47.8866C29.3212 54.6223 29.3216 65.5422 40.9992 72.2777ZM68.2799 52.5353C68.7258 52.7926 69.0084 53.0983 69.126 53.4531L72.8408 63.7565C72.96 64.0741 72.9373 64.3905 72.7716 64.7065C72.614 65.0178 72.3288 65.2927 71.9147 65.5315C71.5165 65.7613 71.0444 65.928 70.4962 66.0327C70.3547 66.0597 70.2148 66.081 70.0744 66.0967C69.6681 66.1426 69.2641 66.1411 68.8608 66.0939L50.7104 64.1166C50.4709 64.0885 50.2464 64.0503 50.0377 64C49.9566 63.9807 49.8785 63.9597 49.8024 63.937C49.5379 63.8599 49.2899 63.755 49.0589 63.6217C48.7563 63.4472 48.5272 63.2437 48.3723 63.0115C48.2266 62.774 48.1543 62.531 48.1536 62.2831C48.1709 62.0341 48.2612 61.7895 48.4227 61.5492C48.5934 61.3128 48.8367 61.1037 49.1519 60.9219L63.599 52.589C63.9223 52.4025 64.2883 52.2602 64.6981 52.1617C65.116 52.0679 65.535 52.0187 65.9579 52.0138C66.3808 52.0089 66.7937 52.0511 67.1973 52.1398C67.6079 52.2245 67.9693 52.3562 68.2799 52.5353Z" fill="white"/>
</svg>
