<svg width="46" height="42" viewBox="0 0 46 42" fill="none" xmlns="http://www.w3.org/2000/svg">
<path fill-rule="evenodd" clip-rule="evenodd" d="M43.427 17.2949L42.3796 17.9291V29.2351L43.427 28.6008V17.2949Z" fill="#BA6B49"/>
<path fill-rule="evenodd" clip-rule="evenodd" d="M42.3793 17.9292L17.2422 2.70615V14.0121L42.3793 29.2351V17.9292Z" fill="#BA6B49"/>
<path fill-rule="evenodd" clip-rule="evenodd" d="M17.2422 2.70615L18.2895 2.07188V13.3778L17.2422 14.0121V2.70615Z" fill="#BA6B49"/>
<path fill-rule="evenodd" clip-rule="evenodd" d="M27.3669 2.07188L43.4267 11.7977V23.1037L27.3669 13.3778V2.07188Z" fill="#BA6B49"/>
<path fill-rule="evenodd" clip-rule="evenodd" d="M40.2847 19.1978L35.3664 22.1762V33.4822L40.2847 30.5037V19.1978Z" fill="#BA6B49"/>
<path fill-rule="evenodd" clip-rule="evenodd" d="M10.2902 22.1762L2.22983 17.2949V28.6008L10.2902 33.4822V22.1762Z" fill="#BA6B49"/>
<path fill-rule="evenodd" clip-rule="evenodd" d="M2.22983 11.7977L15.1475 3.97476V15.2807L2.22983 23.1036V11.7977Z" fill="#BA6B49"/>
<path fill-rule="evenodd" clip-rule="evenodd" d="M15.1475 3.97476L40.2847 19.1978V30.5037L15.1475 15.2807V3.97476Z" fill="#BA6B49"/>
<path fill-rule="evenodd" clip-rule="evenodd" d="M22.8285 23.8493L25.6214 25.5408V36.8467L22.8285 35.1552V23.8493Z" fill="#BA6B49"/>
<path fill-rule="evenodd" clip-rule="evenodd" d="M24.2248 26.3865L20.7335 24.2721V35.5781L24.2248 37.6924V26.3865Z" fill="#BA6B49"/>
<path fill-rule="evenodd" clip-rule="evenodd" d="M20.7335 23.4264L20.7356 23.4251V34.731L20.7335 34.7324V23.4264Z" fill="#BA6B49"/>
<path fill-rule="evenodd" clip-rule="evenodd" d="M20.7357 23.4251L24.9233 20.8891V32.195L20.7357 34.7311V23.4251Z" fill="#BA6B49"/>
<path fill-rule="evenodd" clip-rule="evenodd" d="M26.32 21.7349L22.8285 23.8493V35.1553L26.32 33.0408V21.7349Z" fill="#BA6B49"/>
<path fill-rule="evenodd" clip-rule="evenodd" d="M43.4269 11.7977C44.5624 12.4857 45.1844 13.3675 45.29 14.2664V25.5723C45.1844 24.6735 44.5624 23.7916 43.4269 23.1037V11.7977Z" fill="#BA6B49"/>
<path fill-rule="evenodd" clip-rule="evenodd" d="M45.291 14.2675C45.3017 14.3602 45.3071 14.454 45.3071 14.5467V25.8527C45.3071 25.76 45.3017 25.6661 45.291 25.5734V14.2675Z" fill="#BA6B49"/>
<path fill-rule="evenodd" clip-rule="evenodd" d="M45.3072 14.5434C45.3083 15.5372 44.6831 16.531 43.4339 17.2907V28.5967C44.6831 27.8369 45.3083 26.8431 45.3072 25.8493V14.5434Z" fill="#BA6B49"/>
<path fill-rule="evenodd" clip-rule="evenodd" d="M18.2899 2.07189C20.7965 0.553837 24.8605 0.553837 27.3672 2.07189V13.3778C24.8605 11.8598 20.7965 11.8598 18.2899 13.3778V2.07189Z" fill="#BA6B49"/>
<path fill-rule="evenodd" clip-rule="evenodd" d="M35.3665 22.1762C34.859 20.7747 33.7052 19.4418 31.9057 18.352V29.6579C33.7052 30.7477 34.859 32.0807 35.3665 33.4822V22.1762Z" fill="#BA6B49"/>
<path fill-rule="evenodd" clip-rule="evenodd" d="M31.9056 18.352C26.8923 15.316 18.7643 15.316 13.751 18.352V29.6579C18.7643 26.6219 26.8923 26.6219 31.9056 29.6579V18.352Z" fill="#BA6B49"/>
<path fill-rule="evenodd" clip-rule="evenodd" d="M13.7511 18.352C11.9516 19.4418 10.7979 20.7747 10.2903 22.1762V33.4822C10.7979 32.0807 11.9516 30.7477 13.7511 29.6579V18.352Z" fill="#BA6B49"/>
<path fill-rule="evenodd" clip-rule="evenodd" d="M2.22994 17.2949C0.976925 16.5355 0.349609 15.5405 0.349609 14.5468V25.8527C0.349609 26.8465 0.976925 27.8414 2.22994 28.6008V17.2949Z" fill="#BA6B49"/>
<path fill-rule="evenodd" clip-rule="evenodd" d="M0.350586 14.5468C0.350586 14.4529 0.355927 14.3602 0.366609 14.2664V25.5723C0.355927 25.6662 0.350586 25.7589 0.350586 25.8527V14.5468Z" fill="#BA6B49"/>
<path fill-rule="evenodd" clip-rule="evenodd" d="M0.365692 14.2697C0.471323 13.3709 1.09002 12.4902 2.22285 11.8016V23.1076C1.09002 23.7961 0.471323 24.6769 0.365692 25.5757V14.2697Z" fill="#BA6B49"/>
<path fill-rule="evenodd" clip-rule="evenodd" d="M30.5092 28.5007C32.431 27.3372 33.483 25.8448 33.663 24.3219V35.6278C33.483 37.1508 32.431 38.6431 30.5092 39.8066V28.5007Z" fill="#BA6B49"/>
<path fill-rule="evenodd" clip-rule="evenodd" d="M33.6631 24.3219C33.6815 24.1647 33.6912 24.0076 33.6912 23.8493V35.1552C33.6912 35.3135 33.6815 35.4707 33.6631 35.6278V24.3219Z" fill="#BA6B49"/>
<path fill-rule="evenodd" clip-rule="evenodd" d="M33.6912 23.8516C33.6923 22.1692 32.6338 20.4858 30.5158 19.2014V30.5074C32.6338 31.7917 33.6923 33.4752 33.6912 35.1575V23.8516Z" fill="#BA6B49"/>
<path fill-rule="evenodd" clip-rule="evenodd" d="M30.5092 19.1978C26.2671 16.6287 19.3895 16.6287 15.1475 19.1978V30.5037C19.3895 27.9347 26.2671 27.9347 30.5092 30.5037V19.1978Z" fill="#BA6B49"/>
<path fill-rule="evenodd" clip-rule="evenodd" d="M15.1475 19.1978C13.2256 20.3614 12.1737 21.8538 11.9937 23.3756V34.6815C12.1737 33.1597 13.2256 31.6673 15.1475 30.5037V19.1978Z" fill="#BA6B49"/>
<path fill-rule="evenodd" clip-rule="evenodd" d="M11.9939 23.3767C11.9755 23.5338 11.9658 23.691 11.9658 23.8493V35.1552C11.9658 34.997 11.9755 34.8398 11.9939 34.6826V23.3767Z" fill="#BA6B49"/>
<path fill-rule="evenodd" clip-rule="evenodd" d="M11.9658 23.847C11.9647 25.5294 13.0232 27.2117 15.1412 28.4972V39.8031C13.0232 38.5176 11.9647 36.8353 11.9658 35.153V23.847Z" fill="#BA6B49"/>
<path fill-rule="evenodd" clip-rule="evenodd" d="M15.1475 28.5007C19.3895 31.0696 26.2671 31.0696 30.5092 28.5007V39.8066C26.2671 42.3756 19.3895 42.3756 15.1475 39.8066V28.5007Z" fill="#BA6B49"/>
<path fill-rule="evenodd" clip-rule="evenodd" d="M25.6211 25.5407C25.8138 25.6571 25.9096 25.8108 25.9096 25.9635V37.2694C25.9096 37.1168 25.8138 36.963 25.6211 36.8467V25.5407Z" fill="#BA6B49"/>
<path fill-rule="evenodd" clip-rule="evenodd" d="M25.9097 25.9635C25.9097 26.1161 25.8139 26.2699 25.6211 26.3863V37.6923C25.8139 37.5758 25.9097 37.4221 25.9097 37.2694V25.9635Z" fill="#BA6B49"/>
<path fill-rule="evenodd" clip-rule="evenodd" d="M25.6211 26.3865C25.2355 26.6199 24.6102 26.6199 24.2246 26.3865V37.6924C24.6102 37.9259 25.2355 37.9259 25.6211 37.6924V26.3865Z" fill="#BA6B49"/>
<path fill-rule="evenodd" clip-rule="evenodd" d="M20.7332 24.2721C20.5411 24.1557 20.4442 24.0019 20.4442 23.8493V35.1552C20.4442 35.3079 20.5411 35.4616 20.7332 35.5781V24.2721Z" fill="#BA6B49"/>
<path fill-rule="evenodd" clip-rule="evenodd" d="M20.4442 23.8493C20.4442 23.6967 20.5411 23.5429 20.7328 23.4265V34.7324C20.5411 34.8489 20.4442 35.0026 20.4442 35.1552V23.8493Z" fill="#BA6B49"/>
<path fill-rule="evenodd" clip-rule="evenodd" d="M24.9234 20.8891C25.309 20.6556 25.9344 20.6556 26.3199 20.8891V32.195C25.9344 31.9615 25.309 31.9615 24.9234 32.195V20.8891Z" fill="#BA6B49"/>
<path fill-rule="evenodd" clip-rule="evenodd" d="M26.3198 20.8891C26.5124 21.0059 26.6082 21.1585 26.6082 21.3123V32.6182C26.6082 32.4644 26.5124 32.3118 26.3198 32.195V20.8891Z" fill="#BA6B49"/>
<path fill-rule="evenodd" clip-rule="evenodd" d="M26.6082 21.3122C26.6082 21.4649 26.5123 21.6186 26.3196 21.7351V33.041C26.5123 32.9246 26.6082 32.7708 26.6082 32.6182V21.3122Z" fill="#BA6B49"/>
<path d="M43.4268 11.7977C45.9334 13.3157 45.9335 15.7769 43.4268 17.2949L42.3795 17.9292L17.2423 2.70618L18.2897 2.07189C20.7963 0.553877 24.8603 0.553877 27.367 2.07189L43.4268 11.7977ZM40.2847 19.1978L35.3665 22.1762C34.8588 20.7748 33.7052 19.4418 31.9056 18.352C26.8923 15.316 18.7643 15.316 13.751 18.352C11.9515 19.4418 10.7978 20.7748 10.2902 22.1762L2.22982 17.2949C-0.276821 15.7769 -0.276779 13.3157 2.22982 11.7977L15.1475 3.97476L40.2847 19.1978ZM30.5091 28.5007C34.7512 25.9317 34.7512 21.7667 30.5091 19.1978C26.2671 16.6288 19.3896 16.6288 15.1475 19.1978C10.9055 21.7667 10.9055 25.9317 15.1475 28.5007C19.3896 31.0697 26.2671 31.0697 30.5091 28.5007ZM22.8282 23.8493L25.6212 25.5408C26.0068 25.7743 26.0069 26.1529 25.6212 26.3865C25.2356 26.62 24.6103 26.62 24.2247 26.3865L20.7334 24.2722C20.3479 24.0387 20.3479 23.66 20.7334 23.4265L20.7357 23.4251L24.9232 20.8891C25.3088 20.6556 25.9342 20.6556 26.3197 20.8891C26.7053 21.1226 26.7053 21.5013 26.3197 21.7348L22.8282 23.8493Z" fill="white"/>
</svg>
